<?xml version="1.0" encoding="UTF-8"?>
<svg id="Layer_1" data-name="Layer 1" xmlns="http://www.w3.org/2000/svg" version="1.1" viewBox="0 0 700 700">
  <defs>
    <style>
      .cls-1 {
        fill: #000;
        stroke: #fff;
        stroke-miterlimit: 10;
        stroke-width: 6px;
      }
    </style>
  </defs>
  <path class="cls-1" d="M350,225.37c-83.72,0-151.59,67.71-151.59,151.24s67.87,151.24,151.59,151.24,151.59-67.71,151.59-151.24-67.87-151.24-151.59-151.24ZM350,508.12c-73.52,0-133.11-58.77-133.11-131.27s59.6-131.27,133.11-131.27,133.11,58.77,133.11,131.27-59.6,131.27-133.11,131.27Z"/>
  <g>
    <path class="cls-1" d="M102.73,319.19h86.98c23.54-65.86,86.41-112.99,160.29-112.99s136.74,47.13,160.29,112.99h86.98v-25.86h96.35L350,86.26,6.38,293.33h96.35v25.86Z"/>
    <path class="cls-1" d="M518.14,350c1.36,8.67,2.08,17.55,2.08,26.61,0,94.11-76.21,170.41-170.22,170.41s-170.22-76.29-170.22-170.41c0-9.05.72-17.94,2.08-26.61h-79.13v263.74h494.53v-263.74h-79.13Z"/>
  </g>
  <path class="cls-1" d="M355.02,264.28c-1.39-.05-2.78-.11-4.18-.11-63.92,0-115.74,52.85-115.74,118.04h14.11c.1-56.49,45.56-102.26,101.63-102.26,1.4,0,2.79.05,4.18.11v-15.78Z"/>
</svg>